<svg width="16" height="16" viewBox="0 0 16 16" fill="none" xmlns="http://www.w3.org/2000/svg">
<g clip-path="url(#clip0_11667_1309)">
<path d="M14.5267 0.75H1.90556L0 3.39822L1.488 15.15H14.0944L16 12.5018L14.5267 0.75Z" fill="#A03800"/>
<path d="M1.90558 0.75H14.5267L16 12.5018H3.39358L1.90558 0.75Z" fill="#F57113"/>
<path d="M7.79064 2.80103L7.9722 4.24169H5.64709L5.46487 2.80103H7.79064ZM13.6746 10.4506L12.7158 2.80125H11.4844L11.7838 5.18503L11.6653 4.24191H10.4344L10.5793 5.39414H11.8102L12.4451 10.4506H13.6749H13.6746ZM6.4322 10.4506H8.75531L8.57398 9.01258H6.25042L6.4322 10.4506ZM9.20331 4.24191H7.9722L8.20042 6.05214H9.43109L9.20309 4.24191H9.20331ZM4.56198 5.39391H5.79287L5.64709 4.24169H4.4162L4.56198 5.39391ZM4.87442 7.86147L5.0202 9.01236H6.25042L6.10487 7.86147H4.87442ZM9.5762 7.20369H8.34575L8.57375 9.01236H9.80398L9.5762 7.20369ZM6.96998 6.05214L7.11531 7.20369H8.34575L8.20064 6.05214H6.96998Z" fill="white"/>
</g>
<defs>
<clipPath id="clip0_11667_1309">
<rect width="16" height="16" fill="white"/>
</clipPath>
</defs>
</svg>
