<svg width="512" height="512" viewBox="0 0 512 512" fill="none" xmlns="http://www.w3.org/2000/svg">
<g clip-path="url(#clip0_11715_1346)">
<path d="M440.313 49.5148H83.2102L29.2942 124.444L71.3958 456.95H428.084L482 382.021L440.313 49.5148Z" fill="#C54500"/>
<path d="M83.2102 49.5147H440.313L482 382.021H125.312L83.2102 49.5147Z" fill="#F57113"/>
<path d="M249.724 107.549L254.861 148.311H189.074L183.918 107.549H249.724ZM416.207 323.986L389.076 107.555H354.236L362.706 175.002L359.354 148.318H324.528L328.627 180.919H363.454L381.418 323.986H416.213H416.207ZM211.288 323.986H277.019L271.888 283.3H206.145L211.288 323.986ZM289.694 148.318H254.861L261.318 199.536H296.139L289.688 148.318H289.694ZM158.372 180.913H193.199L189.074 148.311H154.247L158.372 180.913ZM167.212 250.73L171.337 283.293H206.145L202.027 250.73H167.212ZM300.245 232.119H265.431L271.882 283.293H306.69L300.245 232.119ZM226.504 199.536L230.616 232.119H265.431L261.325 199.536H226.504Z" fill="white"/>
</g>
<defs>
<clipPath id="clip0_11715_1346">
<rect width="452.706" height="452.706" fill="white" transform="translate(29.2942 28.2942)"/>
</clipPath>
</defs>
</svg>
