<svg width="512" height="512" viewBox="0 0 512 512" fill="none" xmlns="http://www.w3.org/2000/svg">
<mask id="mask0_11660_357" style="mask-type:luminance" maskUnits="userSpaceOnUse" x="50" y="49" width="412" height="412">
<path fill-rule="evenodd" clip-rule="evenodd" d="M462 177.314C462 172.423 462.002 167.531 461.972 162.64C461.947 158.519 461.9 154.4 461.788 150.281C461.546 141.305 461.016 132.251 459.42 123.375C457.801 114.37 455.157 105.99 450.991 97.8083C446.895 89.7669 441.544 82.4084 435.16 76.0289C428.778 69.6494 421.417 64.3024 413.373 60.209C405.183 56.0415 396.793 53.3985 387.779 51.78C378.902 50.186 369.846 49.6575 360.869 49.415C356.748 49.3035 352.626 49.2565 348.504 49.231C343.61 49.201 338.716 49.2035 333.822 49.2035L276.998 49H234.499L178.681 49.2035C173.777 49.2035 168.874 49.201 163.97 49.231C159.839 49.2565 155.71 49.3035 151.581 49.415C142.583 49.6575 133.507 50.1865 124.608 51.7825C115.582 53.4005 107.18 56.0425 98.9791 60.207C90.9177 64.3009 83.5413 69.6484 77.1453 76.0289C70.7503 82.4079 65.3899 89.7649 61.2864 97.8048C57.1084 105.99 54.4595 114.376 52.8365 123.385C51.2385 132.258 50.709 141.309 50.4655 150.281C50.3545 154.4 50.3065 158.52 50.2815 162.64C50.2515 167.532 50 173.608 50 178.5L50.0015 233.544L50 276.499L50.254 332.713C50.254 337.611 50.252 342.509 50.2815 347.407C50.3065 351.533 50.3545 355.658 50.466 359.783C50.709 368.771 51.2395 377.837 52.839 386.726C54.4615 395.742 57.1099 404.135 61.2844 412.327C65.3884 420.38 70.7498 427.748 77.1453 434.136C83.5408 440.525 90.9152 445.879 98.9751 449.978C107.181 454.151 115.587 456.798 124.619 458.418C133.513 460.014 142.587 460.544 151.581 460.786C155.71 460.898 159.84 460.945 163.971 460.97C168.874 461 173.777 460.999 178.681 460.999L235.003 461H277.608L333.822 460.998C338.716 460.998 343.61 461 348.504 460.97C352.626 460.945 356.748 460.898 360.869 460.786C369.849 460.543 378.908 460.014 387.789 458.416C396.798 456.796 405.184 454.15 413.369 449.98C421.415 445.881 428.777 440.526 435.16 434.136C441.543 427.749 446.893 420.382 450.989 412.33C455.158 404.134 457.802 395.738 459.422 386.715C461.017 377.83 461.546 368.767 461.788 359.783C461.9 355.658 461.947 351.533 461.972 347.407C462.002 342.509 462 337.611 462 332.713C462 332.713 461.997 277.492 461.997 276.499V233.499C461.997 232.766 462 177.314 462 177.314" fill="white"/>
</mask>
<g mask="url(#mask0_11660_357)">
<rect x="50" y="49" width="412" height="412" rx="87.9268" fill="#131313"/>
</g>
<g clip-path="url(#clip0_11660_357)">
<path d="M371.208 126.279H147.74L114 173.169L140.346 381.244H363.555L397.294 334.355L371.208 126.279Z" fill="#C54500"/>
<path d="M147.74 126.279H371.208L397.294 334.355H174.086L147.74 126.279Z" fill="#F57113"/>
<path d="M251.941 162.596L255.155 188.104H213.987L210.761 162.596H251.941ZM356.122 298.038L339.144 162.6H317.342L322.642 204.807L320.545 188.108H298.751L301.316 208.509H323.11L334.352 298.038H356.126H356.122ZM227.888 298.038H269.021L265.81 272.577H224.67L227.888 298.038ZM276.953 188.108H255.155L259.196 220.16H280.986L276.949 188.108H276.953ZM194.774 208.506H216.568L213.987 188.104H192.193L194.774 208.506ZM200.306 252.196L202.887 272.573H224.67L222.092 252.196H200.306ZM283.555 240.549H261.769L265.806 272.573H287.588L283.555 240.549ZM237.41 220.16L239.983 240.549H261.769L259.2 220.16H237.41Z" fill="white"/>
</g>
<defs>
<clipPath id="clip0_11660_357">
<rect width="283.294" height="283.294" fill="white" transform="translate(114 113)"/>
</clipPath>
</defs>
</svg>
